<svg xmlns="http://www.w3.org/2000/svg" xmlns:xlink="http://www.w3.org/1999/xlink" width="500" zoomAndPan="magnify" viewBox="0 0 375 374.999991" height="500" preserveAspectRatio="xMidYMid meet" version="1.0"><defs><g/></defs><rect x="-37.5" width="450" fill="#ffffff" y="-37.499999" height="449.999989" fill-opacity="1"/><rect x="-37.5" width="450" fill="#000000" y="-37.499999" height="449.999989" fill-opacity="1"/><g fill="#ffffff" fill-opacity="1"><g transform="translate(11.019075, 214.156571)"><g><path d="M 0.96875 0 C 0.832031 0 0.734375 -0.0507812 0.671875 -0.15625 C 0.617188 -0.269531 0.628906 -0.363281 0.703125 -0.4375 L 27.625 -50.640625 C 27.65625 -50.742188 27.726562 -50.796875 27.84375 -50.796875 L 35.046875 -50.796875 C 35.148438 -50.796875 35.238281 -50.742188 35.3125 -50.640625 L 62.21875 -0.4375 C 62.289062 -0.363281 62.300781 -0.269531 62.25 -0.15625 C 62.195312 -0.0507812 62.097656 0 61.953125 0 L 51.234375 0 C 51.085938 0 51 -0.0507812 50.96875 -0.15625 L 31.796875 -35.953125 C 31.722656 -36.066406 31.628906 -36.125 31.515625 -36.125 C 31.410156 -36.125 31.320312 -36.066406 31.25 -35.953125 L 12.078125 -0.15625 C 12.003906 -0.0507812 11.914062 0 11.8125 0 Z M 0.96875 0 "/></g></g></g><g fill="#ffffff" fill-opacity="1"><g transform="translate(73.937228, 214.156571)"><g><path d="M 0.703125 -50.203125 C 0.554688 -50.492188 0.644531 -50.640625 0.96875 -50.640625 L 11.8125 -50.640625 C 11.914062 -50.640625 12.003906 -50.582031 12.078125 -50.46875 L 31.25 -14.734375 C 31.320312 -14.617188 31.410156 -14.5625 31.515625 -14.5625 C 31.628906 -14.5625 31.722656 -14.617188 31.796875 -14.734375 L 50.96875 -50.46875 C 51 -50.582031 51.085938 -50.640625 51.234375 -50.640625 L 61.953125 -50.640625 C 62.273438 -50.640625 62.363281 -50.492188 62.21875 -50.203125 L 35.3125 0 C 35.238281 0.101562 35.148438 0.15625 35.046875 0.15625 L 27.84375 0.15625 C 27.726562 0.15625 27.65625 0.101562 27.625 0 Z M 0.703125 -50.203125 "/></g></g></g><g fill="#ffffff" fill-opacity="1"><g transform="translate(136.855381, 214.156571)"><g><path d="M 4.4375 -30.21875 C 4.4375 -30.4375 4.546875 -30.546875 4.765625 -30.546875 L 45.59375 -30.546875 C 45.851562 -30.546875 45.984375 -30.4375 45.984375 -30.21875 L 45.984375 -20.578125 C 45.984375 -20.359375 45.851562 -20.25 45.59375 -20.25 L 14.84375 -20.25 C 14.65625 -20.25 14.5625 -20.160156 14.5625 -19.984375 L 14.5625 -10.609375 C 14.5625 -10.429688 14.65625 -10.34375 14.84375 -10.34375 L 45.703125 -10.34375 C 45.816406 -10.269531 45.910156 -10.210938 45.984375 -10.171875 C 46.054688 -10.140625 46.09375 -10.070312 46.09375 -9.96875 L 46.09375 -0.375 C 46.09375 -0.125 45.960938 0 45.703125 0 L 4.8125 0 C 4.5625 0 4.4375 -0.125 4.4375 -0.375 Z M 4.765625 -40.625 C 4.546875 -40.625 4.4375 -40.726562 4.4375 -40.9375 L 4.4375 -50.421875 C 4.507812 -50.671875 4.632812 -50.796875 4.8125 -50.796875 L 45.703125 -50.796875 C 45.960938 -50.722656 46.09375 -50.597656 46.09375 -50.421875 L 46.09375 -41 C 46.09375 -40.75 45.960938 -40.625 45.703125 -40.625 Z M 4.765625 -40.625 "/></g></g></g><g fill="#ffffff" fill-opacity="1"><g transform="translate(187.37398, 214.156571)"><g><path d="M 4.4375 -50.53125 C 4.4375 -50.707031 4.546875 -50.796875 4.765625 -50.796875 L 15.484375 -50.796875 C 15.554688 -50.796875 15.628906 -50.757812 15.703125 -50.6875 L 48.625 -13.4375 C 48.738281 -13.320312 48.859375 -13.28125 48.984375 -13.3125 C 49.109375 -13.351562 49.171875 -13.460938 49.171875 -13.640625 L 49.171875 -50.421875 C 49.285156 -50.671875 49.410156 -50.796875 49.546875 -50.796875 L 59.140625 -50.796875 C 59.390625 -50.722656 59.515625 -50.597656 59.515625 -50.421875 L 59.515625 -0.375 C 59.515625 -0.125 59.390625 0 59.140625 0 L 47.109375 0 C 47.035156 0 46.96875 -0.0351562 46.90625 -0.109375 C 44.519531 -2.816406 41.71875 -5.957031 38.5 -9.53125 C 35.757812 -12.601562 32.429688 -16.359375 28.515625 -20.796875 C 24.597656 -25.234375 20.113281 -30.320312 15.0625 -36.0625 C 14.988281 -36.175781 14.882812 -36.203125 14.75 -36.140625 C 14.625 -36.085938 14.5625 -35.988281 14.5625 -35.84375 L 14.5625 -0.21875 C 14.5625 0.03125 14.421875 0.15625 14.140625 0.15625 L 4.765625 0.15625 C 4.546875 0.15625 4.4375 0.0507812 4.4375 -0.15625 Z M 4.4375 -50.53125 "/></g></g></g><g fill="#ffffff" fill-opacity="1"><g transform="translate(251.320895, 214.156571)"><g><path d="M 4.4375 -50.53125 C 4.4375 -50.707031 4.546875 -50.796875 4.765625 -50.796875 L 14.453125 -50.796875 C 14.671875 -50.796875 14.78125 -50.707031 14.78125 -50.53125 L 14.78125 -23.890625 C 14.78125 -20.742188 15.234375 -18.273438 16.140625 -16.484375 C 17.046875 -14.703125 18.242188 -13.347656 19.734375 -12.421875 C 21.234375 -11.503906 22.957031 -10.921875 24.90625 -10.671875 C 26.863281 -10.421875 28.890625 -10.273438 30.984375 -10.234375 C 33.429688 -10.160156 35.664062 -10.335938 37.6875 -10.765625 C 39.707031 -11.203125 41.441406 -11.953125 42.890625 -13.015625 C 44.335938 -14.085938 45.457031 -15.523438 46.25 -17.328125 C 47.039062 -19.128906 47.4375 -21.40625 47.4375 -24.15625 L 47.4375 -50.53125 C 47.4375 -50.707031 47.53125 -50.796875 47.71875 -50.796875 L 57.40625 -50.796875 C 57.582031 -50.796875 57.671875 -50.6875 57.671875 -50.46875 L 57.671875 -24.6875 C 57.671875 -21.1875 57.289062 -18.132812 56.53125 -15.53125 C 55.78125 -12.9375 54.753906 -10.726562 53.453125 -8.90625 C 52.148438 -7.082031 50.625 -5.59375 48.875 -4.4375 C 47.125 -3.28125 45.253906 -2.367188 43.265625 -1.703125 C 41.285156 -1.035156 39.25 -0.582031 37.15625 -0.34375 C 35.0625 -0.113281 33.003906 0 30.984375 0 C 27.765625 0 24.578125 -0.332031 21.421875 -1 C 18.265625 -1.664062 15.421875 -2.898438 12.890625 -4.703125 C 10.359375 -6.515625 8.316406 -9.035156 6.765625 -12.265625 C 5.210938 -15.492188 4.4375 -19.65625 4.4375 -24.75 Z M 4.4375 -50.53125 "/></g></g></g><g fill="#ffffff" fill-opacity="1"><g transform="translate(313.426832, 214.156571)"><g><path d="M 4.4375 -30.21875 C 4.4375 -30.4375 4.546875 -30.546875 4.765625 -30.546875 L 45.59375 -30.546875 C 45.851562 -30.546875 45.984375 -30.4375 45.984375 -30.21875 L 45.984375 -20.578125 C 45.984375 -20.359375 45.851562 -20.25 45.59375 -20.25 L 14.84375 -20.25 C 14.65625 -20.25 14.5625 -20.160156 14.5625 -19.984375 L 14.5625 -10.609375 C 14.5625 -10.429688 14.65625 -10.34375 14.84375 -10.34375 L 45.703125 -10.34375 C 45.816406 -10.269531 45.910156 -10.210938 45.984375 -10.171875 C 46.054688 -10.140625 46.09375 -10.070312 46.09375 -9.96875 L 46.09375 -0.375 C 46.09375 -0.125 45.960938 0 45.703125 0 L 4.8125 0 C 4.5625 0 4.4375 -0.125 4.4375 -0.375 Z M 4.765625 -40.625 C 4.546875 -40.625 4.4375 -40.726562 4.4375 -40.9375 L 4.4375 -50.421875 C 4.507812 -50.671875 4.632812 -50.796875 4.8125 -50.796875 L 45.703125 -50.796875 C 45.960938 -50.722656 46.09375 -50.597656 46.09375 -50.421875 L 46.09375 -41 C 46.09375 -40.75 45.960938 -40.625 45.703125 -40.625 Z M 4.765625 -40.625 "/></g></g></g></svg>